<svg id="Capa_1" data-name="Capa 1" xmlns="http://www.w3.org/2000/svg" viewBox="0 0 290.16 255.6"><path d="M236.1,53.45V88a44.33,44.33,0,0,0,44.28,44.29V105.62A17.67,17.67,0,0,1,262.73,88V53.45A44.34,44.34,0,0,0,218.44,9.16V35.8A17.67,17.67,0,0,1,236.1,53.45Z" style="fill:#ededed"/><path d="M280.38,105.65v26.64a17.67,17.67,0,0,0-17.65,17.65v34.52a44.34,44.34,0,0,1-44.29,44.29V202.11a17.67,17.67,0,0,0,17.66-17.65V149.94A44.33,44.33,0,0,1,280.38,105.65Z" style="fill:#ededed"/><path d="M16.71,143.14a98.89,98.89,0,1,1,120.08,71.71A98.89,98.89,0,0,1,16.71,143.14ZM132.38,190A71.93,71.93,0,1,0,45,137.85,71.92,71.92,0,0,0,132.38,190Z" style="fill:#72f285"/><path d="M229.1,147.06s-5.16-4-19.24-46-11.29,42.58-11.29,42.58l-4,30.66S209.06,155.82,229.1,147.06Z" style="fill:#72f285"/><path d="M115.36,84.3c20.71-4.64,55.23,35.08,23.53,62.65-34,29.59-70.74-13.07-59.57-37.55,0,0,17.52,20.6,34.54,7.21S115.36,84.3,115.36,84.3Z" style="fill:#72f285"/></svg>