<svg id="Capa_1" data-name="Capa 1" xmlns="http://www.w3.org/2000/svg" viewBox="0 0 885.6 298.08"><path d="M71.68,147.39H59.44V192H34.81V70h39.3q18.51,0,28.61,9.6t10.1,27.27q0,24.3-17.68,34l21.37,49.94V192H90ZM59.44,126.86h14q7.36,0,11.06-4.9t3.68-13.12q0-18.34-14.32-18.35H59.44Z" style="fill:#72f285"/><path d="M153.46,192h-23.8V101.3h23.8Z" style="fill:#72f285"/><path d="M204.57,174q10.31,0,10.48-13.41h22.29q-.18,14.84-9.14,24t-23.12,9.13q-17.52,0-26.73-10.89T169,150.66v-7.21q0-21.37,9.09-32.6t26.86-11.22q15,0,23.63,9.26t8.8,26.26H215.05q-.09-7.62-2.52-11.73t-8-4.1q-6.21,0-8.88,4.4t-2.85,17.05V150q0,11.06,1.09,15.45a11.58,11.58,0,0,0,3.6,6.46Q200,174,204.57,174Z" style="fill:#72f285"/><path d="M293.81,192a33.34,33.34,0,0,1-2-7,20.26,20.26,0,0,1-17.26,8.71q-11.4,0-18.9-7.54t-7.49-19.52q0-14.25,9.09-22t26.18-8h7.21v-7.29q0-6.12-2.1-8.63a7.48,7.48,0,0,0-6.11-2.52q-8.88,0-8.89,10.39H249.82a26.24,26.24,0,0,1,9.43-20.74q9.42-8.16,23.84-8.16,14.91,0,23.08,7.75t8.17,22.16v42.65q.17,11.73,3.35,18.35V192Zm-14-16.93a13.23,13.23,0,0,0,6.7-1.59,11.29,11.29,0,0,0,4.11-3.77V150.82h-5.7a12.17,12.17,0,0,0-9.51,3.86q-3.48,3.85-3.48,10.3Q271.94,175,279.82,175Z" style="fill:#72f285"/><path d="M376.26,124.18l-7.87-.67q-9.72,0-13.16,8.54V192H331.44V101.3h22.37l.67,9.81q5.61-11.49,15.5-11.48a16.78,16.78,0,0,1,6.54,1.08Z" style="fill:#72f285"/><path d="M383.64,143.87q0-22.29,7.54-33.27t21.95-11q10.49,0,17.43,9.05V63.26h23.88V192H432.91l-1.09-9.22q-7.29,10.89-18.77,10.89-14.25,0-21.74-10.89t-7.67-32Zm23.8,5.95q0,13.41,2.84,18.73t9.64,5.32a11.56,11.56,0,0,0,10.64-6.29V126.19q-3.51-6.7-10.56-6.71-6.53,0-9.55,5.28t-3,18.77Z" style="fill:#72f285"/><path d="M468.69,143.87q0-22.29,7.54-33.27t21.95-11q10.49,0,17.43,9.05V63.26h23.88V192H518l-1.09-9.22q-7.29,10.89-18.77,10.89-14.25,0-21.74-10.89t-7.67-32Zm23.8,5.95q0,13.41,2.84,18.73t9.64,5.32a11.56,11.56,0,0,0,10.64-6.29V126.19q-3.51-6.7-10.56-6.71-6.53,0-9.55,5.28t-3,18.77Z" style="fill:#72f285"/><path d="M598.23,70h24.64v84.47q0,17.76-9.89,28.49t-25.47,10.72q-16.77,0-26.06-10t-9.3-27.74h24.72q0,17.26,10.64,17.27t10.72-19.95Z" style="fill:#ededed"/><path d="M638.29,143.7q0-20.61,9.72-32.34T674.9,99.63q17.36,0,27.07,11.73t9.72,32.51v5.78q0,20.7-9.64,32.34t-27,11.65q-17.43,0-27.11-11.69t-9.67-32.47Zm23.79,6q0,24.3,13,24.3,12,0,12.9-20.28l.09-10q0-12.4-3.44-18.39t-9.72-6q-6,0-9.42,6t-3.4,18.39Z" style="fill:#ededed"/><path d="M797.16,149.57q0,22-7,33.05t-22.12,11q-11.82,0-18.94-10.64l-.75,9H726.44V63.26h23.71v45.42a21,21,0,0,1,17.68-9.05q15.07,0,22.12,10.93t7.21,32.05Zm-23.72-5.95q0-14.34-2.76-19.23T761,119.48a11.43,11.43,0,0,0-10.89,6.79v41.31q3.18,6.38,11.06,6.37,6.78,0,9.43-4.44t2.8-17.26Z" style="fill:#ededed"/><path d="M813.54,78.8v34.51a44.33,44.33,0,0,0,44.28,44.29V131a17.67,17.67,0,0,1-17.65-17.65V78.8a44.34,44.34,0,0,0-44.29-44.29V61.15A17.67,17.67,0,0,1,813.54,78.8Z" style="fill:#ededed"/><path d="M857.82,131v26.64a17.66,17.66,0,0,0-17.65,17.64V209.8a44.34,44.34,0,0,1-44.29,44.29V227.45a17.67,17.67,0,0,0,17.66-17.65V175.28A44.33,44.33,0,0,1,857.82,131Z" style="fill:#ededed"/><path d="M34.84,254.4V209.69H50.67q23.82,0,23.82,21.79,0,10.44-6.5,16.68T50.67,254.4Zm10.07-36.51v28.34h5q6.55,0,10.28-3.93t3.72-10.69q0-6.39-3.69-10.06t-10.37-3.66Z" style="fill:#ededed"/><path d="M109.63,241.24H88.8q.49,6.94,8.76,6.95a17.13,17.13,0,0,0,9.26-2.49v7.11q-4.42,2.37-11.5,2.36-7.74,0-12-4.28t-4.27-12q0-8,4.62-12.59A15.36,15.36,0,0,1,95,221.69q7,0,10.8,4.15t3.82,11.25Zm-9.14-6.05q0-6.85-5.55-6.86a5.31,5.31,0,0,0-4.1,2,8.94,8.94,0,0,0-2.1,4.89Z" style="fill:#ededed"/><path d="M113.4,253.55v-8a21,21,0,0,0,4.85,2.19,16.31,16.31,0,0,0,4.56.71,9.89,9.89,0,0,0,4.13-.71,2.33,2.33,0,0,0,1.52-2.19,2,2,0,0,0-.69-1.56,6.46,6.46,0,0,0-1.76-1.09,20.71,20.71,0,0,0-2.35-.84c-.86-.25-1.68-.53-2.47-.84a24,24,0,0,1-3.35-1.54,9.47,9.47,0,0,1-2.43-1.92,7.58,7.58,0,0,1-1.5-2.53,10.08,10.08,0,0,1-.51-3.39,8.76,8.76,0,0,1,1.17-4.62,9.52,9.52,0,0,1,3.12-3.16,14.06,14.06,0,0,1,4.45-1.81,23,23,0,0,1,5.23-.58,28.8,28.8,0,0,1,4.3.33,33.33,33.33,0,0,1,4.3.95v7.61a15.31,15.31,0,0,0-4-1.64,17,17,0,0,0-4.19-.54,8.86,8.86,0,0,0-1.82.17,5.77,5.77,0,0,0-1.52.5,2.66,2.66,0,0,0-1,.84,1.93,1.93,0,0,0-.38,1.17,2.16,2.16,0,0,0,.56,1.49,4.92,4.92,0,0,0,1.47,1.08,14.5,14.5,0,0,0,2,.81l2.2.73a28.94,28.94,0,0,1,3.55,1.5,11.32,11.32,0,0,1,2.73,1.9,7.37,7.37,0,0,1,1.74,2.56,9,9,0,0,1,.61,3.49,9.15,9.15,0,0,1-1.23,4.85,9.83,9.83,0,0,1-3.27,3.27,15,15,0,0,1-4.71,1.84,26.4,26.4,0,0,1-5.53.57A28.51,28.51,0,0,1,113.4,253.55Z" style="fill:#ededed"/><path d="M148.56,217.42a5.74,5.74,0,0,1-4.08-1.48,4.78,4.78,0,0,1-1.59-3.63,4.61,4.61,0,0,1,1.59-3.62,6.67,6.67,0,0,1,8.18,0,4.63,4.63,0,0,1,1.58,3.62,4.76,4.76,0,0,1-1.58,3.68A5.87,5.87,0,0,1,148.56,217.42Zm4.87,37h-9.85V222.47h9.85Z" style="fill:#ededed"/><path d="M193,250.75q0,8.88-5.14,13.76T173,269.39q-6.45,0-10.22-1.84v-8.29a19.59,19.59,0,0,0,9.94,2.87q5,0,7.74-2.64a9.47,9.47,0,0,0,2.74-7.15v-2.53H183a11,11,0,0,1-9.94,5.36,12,12,0,0,1-9.7-4.3q-3.59-4.29-3.58-11.53,0-8.11,4-12.88a13,13,0,0,1,10.51-4.77,9.69,9.69,0,0,1,8.72,4.49h.13v-3.71H193Zm-9.73-11.69v-2.53a7.76,7.76,0,0,0-1.79-5.16,5.8,5.8,0,0,0-4.66-2.13,6,6,0,0,0-5.14,2.55q-1.87,2.57-1.87,7.21a10.17,10.17,0,0,0,1.77,6.31,5.8,5.8,0,0,0,4.87,2.32,6,6,0,0,0,4.94-2.35A9.71,9.71,0,0,0,183.29,239.06Z" style="fill:#ededed"/><path d="M232.08,254.4h-9.82V236.66q0-7.42-5.3-7.42a5.27,5.27,0,0,0-4.21,2,7.49,7.49,0,0,0-1.65,5V254.4h-9.85V222.47h9.85v5.05h.13a11.29,11.29,0,0,1,10.25-5.83q10.61,0,10.6,13.16Z" style="fill:#ededed"/><path d="M268.56,241.24H247.73q.51,6.94,8.76,6.95a17.11,17.11,0,0,0,9.26-2.49v7.11q-4.42,2.37-11.5,2.36-7.74,0-12-4.28t-4.27-12q0-8,4.61-12.59a15.36,15.36,0,0,1,11.35-4.65q7,0,10.8,4.15t3.82,11.25Zm-9.14-6.05q0-6.85-5.55-6.86a5.29,5.29,0,0,0-4.09,2,8.88,8.88,0,0,0-2.11,4.89Z" style="fill:#ededed"/><path d="M295.24,231.36a8.44,8.44,0,0,0-4.14-1,6,6,0,0,0-5,2.35,10.26,10.26,0,0,0-1.81,6.41V254.4h-9.85V222.47h9.85v5.93h.13q2.33-6.5,8.41-6.49a6.3,6.3,0,0,1,2.43.38Z" style="fill:#ededed"/><path d="M324.74,209.69l-21.8,52.13h-8.79l21.7-52.13Z" style="fill:#ededed"/><path d="M329.1,254.4V209.69h15.84q23.82,0,23.82,21.79,0,10.44-6.5,16.68t-17.32,6.24Zm10.07-36.51v28.34h5q6.54,0,10.27-3.93t3.73-10.69q0-6.39-3.7-10.06t-10.36-3.66Z" style="fill:#ededed"/><path d="M403.89,241.24H383.07q.49,6.94,8.76,6.95a17.1,17.1,0,0,0,9.25-2.49v7.11q-4.43,2.37-11.5,2.36-7.72,0-12-4.28t-4.27-12q0-8,4.61-12.59a15.37,15.37,0,0,1,11.35-4.65c4.65,0,8.26,1.39,10.8,4.15s3.82,6.51,3.82,11.25Zm-9.13-6.05q0-6.85-5.55-6.86a5.3,5.3,0,0,0-4.1,2,8.88,8.88,0,0,0-2.11,4.89Z" style="fill:#ededed"/><path d="M440.15,222.47,428.27,254.4H417.05l-11.32-31.93h10.54l5.55,19.67a29.55,29.55,0,0,1,1.09,5.68H423a32,32,0,0,1,1.16-5.49l5.67-19.86Z" style="fill:#ededed"/><path d="M472.41,241.24H451.59q.5,6.94,8.76,6.95a17.13,17.13,0,0,0,9.26-2.49v7.11q-4.42,2.37-11.5,2.36-7.74,0-12-4.28t-4.27-12q0-8,4.62-12.59a15.33,15.33,0,0,1,11.34-4.65q7,0,10.81,4.15t3.81,11.25Zm-9.13-6.05q0-6.85-5.55-6.86a5.3,5.3,0,0,0-4.1,2,8.94,8.94,0,0,0-2.1,4.89Z" style="fill:#ededed"/><path d="M488.13,254.4h-9.85V207.13h9.85Z" style="fill:#ededed"/><path d="M511.63,255.17q-8,0-12.55-4.47t-4.56-12.14q0-7.92,4.74-12.39t12.81-4.48q7.95,0,12.47,4.48T529.06,238q0,8-4.66,12.56T511.63,255.17Zm.25-25.93a6.56,6.56,0,0,0-5.42,2.4q-1.93,2.4-1.93,6.79,0,9.21,7.42,9.2,7.06,0,7.07-9.45Q519,229.24,511.88,229.24Z" style="fill:#ededed"/><path d="M545.43,250.69h-.13v18.39h-9.85V222.47h9.85v4.8h.13a11.58,11.58,0,0,1,10.25-5.58q6.21,0,9.59,4.26t3.38,11.58q0,8-3.94,12.81a12.87,12.87,0,0,1-10.49,4.83A9.92,9.92,0,0,1,545.43,250.69Zm-.28-13.1v2.56a8.14,8.14,0,0,0,1.74,5.39,5.7,5.7,0,0,0,4.59,2.09,6.06,6.06,0,0,0,5.22-2.6q1.84-2.61,1.85-7.38,0-8.42-6.55-8.41a6.15,6.15,0,0,0-4.94,2.29A9.13,9.13,0,0,0,545.15,237.59Z" style="fill:#ededed"/><path d="M603.73,241.24H582.9q.5,6.94,8.76,6.95a17.13,17.13,0,0,0,9.26-2.49v7.11q-4.42,2.37-11.5,2.36-7.74,0-12-4.28t-4.27-12q0-8,4.62-12.59a15.33,15.33,0,0,1,11.34-4.65q7,0,10.81,4.15t3.82,11.25Zm-9.14-6.05q0-6.85-5.55-6.86a5.31,5.31,0,0,0-4.1,2,8.94,8.94,0,0,0-2.1,4.89Z" style="fill:#ededed"/><path d="M630.41,231.36a8.48,8.48,0,0,0-4.15-1,6,6,0,0,0-5,2.35,10.32,10.32,0,0,0-1.8,6.41V254.4h-9.85V222.47h9.85v5.93h.12q2.34-6.5,8.42-6.49a6.3,6.3,0,0,1,2.43.38Z" style="fill:#ededed"/><path d="M116.28,68.77a27.58,27.58,0,1,1,33.49,20A27.58,27.58,0,0,1,116.28,68.77Zm32.26,13.06a20.06,20.06,0,1,0-24.36-14.54A20.05,20.05,0,0,0,148.54,81.83Z" style="fill:#72f285"/><path d="M175.51,69.86s-1.44-1.12-5.37-12.83S167,68.9,167,68.9l-1.1,8.55A28.51,28.51,0,0,1,175.51,69.86Z" style="fill:#72f285"/><path d="M143.79,52.35c5.78-1.29,15.4,9.79,6.56,17.48-9.48,8.25-19.73-3.65-16.61-10.48,0,0,4.89,5.75,9.63,2S143.79,52.35,143.79,52.35Z" style="fill:#72f285"/></svg>