<svg id="Capa_1" data-name="Capa 1" xmlns="http://www.w3.org/2000/svg" viewBox="0 0 512 512"><path d="M131.24,131.86a176,176,0,1,1,.62,248.9A176,176,0,0,1,131.24,131.86ZM119.9,120.57c74.77-75.14,196.39-75.44,271.53-.67s75.44,196.39.67,271.53-196.39,75.44-271.53.67S45.13,195.71,119.9,120.57ZM273.22,357.78a8.09,8.09,0,0,0,5.67,2.39,7.9,7.9,0,0,0,5.65-2.42L324,318.06a8,8,0,1,0-11.35-11.29l-25.88,26-.18-71.14V258.4l-2.34-2.33-43-42.81-.19-75.95a8,8,0,1,0-16,0l.19,79.2v3.25l2.34,2.33,43,42.81.17,67.89-26-25.89a8,8,0,0,0-11.28,11.34l39.69,39.5Z" style="fill:#ededed;fill-rule:evenodd"/></svg>