<svg xmlns="http://www.w3.org/2000/svg" viewBox="0 0 37.44 34.94"><g id="ELEMENTS"><path d="M19.06,8.86A8,8,0,0,0,12.24,21l.21.34-.8,3,3-.8.34.2A8,8,0,1,0,19.06,8.86Zm4.7,11A2.37,2.37,0,0,1,22,21.19a3.73,3.73,0,0,1-2-.31,8.17,8.17,0,0,1-1.69-.8,9.71,9.71,0,0,1-2.71-2.52c-.22-.31-.43-.62-.62-.95a5,5,0,0,1-.6-1.38,2.57,2.57,0,0,1-.08-.62,2.46,2.46,0,0,1,.86-2,1.11,1.11,0,0,1,1.22-.18c.42.23.63.82.83,1.24a2.07,2.07,0,0,1,.26,1.11,2.25,2.25,0,0,1-.58.94.38.38,0,0,0-.05.53A6.33,6.33,0,0,0,20,19a.35.35,0,0,0,.46-.09c.24-.3.47-.87.84-1a1.65,1.65,0,0,1,1.41.32c.38.22,1,.5,1.11,1A1.19,1.19,0,0,1,23.76,19.86Z" style="fill:#72f285"/><path d="M18.72.88A16.59,16.59,0,1,0,35.31,17.47,16.59,16.59,0,0,0,18.72.88Zm.34,25.82a9.83,9.83,0,0,1-4.68-1.19L9,26.94l1.43-5.33a9.84,9.84,0,1,1,8.61,5.09Z" style="fill:#72f285"/></g></svg>