<svg id="Capa_1" data-name="Capa 1" xmlns="http://www.w3.org/2000/svg" viewBox="0 0 240.72 218.88"><path d="M16.71,130.78a98.89,98.89,0,1,1,120.08,71.71A98.89,98.89,0,0,1,16.71,130.78Zm115.67,46.86A71.93,71.93,0,1,0,45,125.49,71.92,71.92,0,0,0,132.38,177.64Z" style="fill:#72f285"/><path d="M229.1,134.7s-5.16-4-19.24-46-11.29,42.58-11.29,42.58l-4,30.66S209.06,143.46,229.1,134.7Z" style="fill:#72f285"/><path d="M115.36,71.94c20.71-4.64,55.23,35.08,23.53,62.65-34,29.59-70.74-13.07-59.57-37.55,0,0,17.52,20.6,34.54,7.21S115.36,71.94,115.36,71.94Z" style="fill:#72f285"/></svg>